<?xml version="1.0" standalone="no"?>
<!DOCTYPE svg PUBLIC "-//W3C//DTD SVG 1.1//EN" "http://www.w3.org/Graphics/SVG/1.1/DTD/svg11.dtd" >
<svg xmlns="http://www.w3.org/2000/svg">
<metadata>Generated by IcoMoon</metadata>
<defs>
<font id="icomoon" horiz-adv-x="1024">
<font-face units-per-em="1024" ascent="960" descent="-64" />
<missing-glyph horiz-adv-x="1024" />
<glyph unicode="&#x20;" horiz-adv-x="512" d="" />
<glyph unicode="&#xe900;" glyph-name="addperson" d="M746.667 648.533c76.8 0 140.8-64 140.8-145.067 0-76.8-59.733-140.8-136.533-140.8-34.133 59.733-85.333 106.667-145.067 136.533 0 0 0 4.267 0 4.267-4.267 81.067 59.733 145.067 140.8 145.067zM836.267 307.2c106.667 0 187.733-68.267 187.733-170.667v-55.467h-226.133v110.933c0 38.4-8.533 76.8-21.333 115.2h59.733zM0 76.8v115.2c0 110.933 76.8 200.533 179.2 221.867 46.933-34.133 102.4-51.2 162.133-51.2s115.2 21.333 162.133 51.2c102.4-21.333 179.2-115.2 179.2-221.867v-115.2h-682.667zM341.333 477.867c-93.867 0-170.667 76.8-170.667 170.667s76.8 170.667 170.667 170.667 170.667-76.8 170.667-170.667-76.8-170.667-170.667-170.667z" />
<glyph unicode="&#xe901;" glyph-name="angle-down" d="M1002.667 704c-38.4 34.133-98.133 34.133-132.267 0l-358.4-332.8-354.133 337.067c-38.4 34.133-98.133 34.133-136.533-4.267l4.267 4.267c-34.133-29.867-38.4-85.333-4.267-119.467 0 0 4.267-4.267 4.267-4.267l418.133-396.8c38.4-34.133 98.133-34.133 132.267 0l418.133 396.8c38.4 34.133 38.4 85.333 8.533 119.467-4.267 4.267-4.267 4.267-4.267 4.267l4.267-4.267z" />
<glyph unicode="&#xe902;" glyph-name="calendar" d="M341.333 192v-85.333h-256c-46.933 0-85.333 38.4-85.333 85.333v554.667c0 46.933 38.4 85.333 85.333 85.333h85.333v-85.333h42.667v213.333h85.333v-128h298.667v-85.333h42.667v213.333h85.333v-128h42.667c46.933 0 85.333-38.4 85.333-85.333v-128h-768v-426.667h256zM725.333-64c-166.4 0-298.667 132.267-298.667 298.667s132.267 298.667 298.667 298.667 298.667-132.267 298.667-298.667-132.267-298.667-298.667-298.667zM725.333 448c-119.467 0-213.333-93.867-213.333-213.333s93.867-213.333 213.333-213.333 213.333 93.867 213.333 213.333-93.867 213.333-213.333 213.333zM853.333 192h-170.667v213.333h85.333v-128h85.333v-85.333z" />
<glyph unicode="&#xe903;" glyph-name="cancel" d="M1024 878.933l-85.333 81.067-426.667-430.933-426.667 430.933-85.333-81.067 430.933-430.933-430.933-430.933 85.333-81.067 426.667 430.933 426.667-430.933 85.333 81.067-430.933 430.933z" />
<glyph unicode="&#xe904;" glyph-name="caret-left" d="M119.467 503.467l704 448c12.8 4.267 25.6 8.533 38.4 8.533 8.533 0 21.333-4.267 29.867-8.533 21.333-12.8 34.133-34.133 34.133-55.467v-896c0-21.333-12.8-46.933-34.133-55.467-21.333-12.8-46.933-8.533-64 0l-704 448c-17.067 12.8-29.867 34.133-29.867 55.467-4.267 21.333 8.533 42.667 25.6 55.467z" />
<glyph unicode="&#xe905;" glyph-name="caret-right" d="M900.267 392.533l-704-448c-12.8-4.267-25.6-8.533-38.4-8.533-8.533 0-21.333 4.267-29.867 8.533-21.333 12.8-34.133 34.133-34.133 55.467v896c0 21.333 12.8 46.933 34.133 55.467 21.333 12.8 46.933 8.533 64 0l704-448c17.067-12.8 29.867-34.133 29.867-55.467 4.267-21.333-8.533-42.667-25.6-55.467z" />
<glyph unicode="&#xe906;" glyph-name="checked" d="M1006.933 746.667l-644.267-695.467-345.6 307.2c-25.6 17.067-25.6 55.467-8.533 76.8 25.6 25.6 55.467 25.6 85.333 8.533l260.267-226.133 567.467 610.133c25.6 25.6 64 25.6 85.333 0s21.333-55.467 0-81.067z" />
<glyph unicode="&#xe907;" glyph-name="checked-o" d="M512 960c-281.6 0-512-230.4-512-512s230.4-512 512-512 512 230.4 512 512-230.4 512-512 512zM806.4 614.4l-349.867-379.733-187.733 166.4c-12.8 8.533-12.8 29.867-4.267 42.667 12.8 12.8 29.867 12.8 46.933 4.267l140.8-123.733 307.2 332.8c12.8 12.8 34.133 12.8 46.933 0s12.8-29.867 0-42.667z" />
<glyph unicode="&#xe908;" glyph-name="chevron-circle-left" d="M512 960c273.067 0 494.933-230.4 494.933-512s-221.867-512-494.933-512-494.933 230.4-494.933 512 221.867 512 494.933 512zM512 0c238.933 0 430.933 200.533 430.933 448s-192 448-430.933 448-430.933-200.533-430.933-448 192-448 430.933-448zM584.533 661.333l42.667-46.933-162.133-170.667 162.133-166.4-42.667-46.933-183.467 192c-12.8 12.8-12.8 34.133 0 46.933l183.467 192z" />
<glyph unicode="&#xe909;" glyph-name="chevron-circle-right" d="M512-64c-273.067 0-494.933 230.4-494.933 512s221.867 512 494.933 512 494.933-230.4 494.933-512-221.867-512-494.933-512zM512 896c-238.933 0-430.933-200.533-430.933-448s192-448 430.933-448 430.933 200.533 430.933 448-192 448-430.933 448zM439.467 234.667l-42.667 46.933 162.133 170.667-162.133 166.4 42.667 46.933 183.467-192c12.8-12.8 12.8-34.133 0-46.933l-183.467-192z" />
<glyph unicode="&#xe90a;" glyph-name="cid" d="M230.4 217.6c-68.267 0-123.733 21.333-166.4 68.267s-64 98.133-64 162.133 21.333 119.467 64 162.133 98.133 68.267 166.4 68.267c81.067 0 153.6-42.667 192-106.667l-51.2-29.867c-25.6 46.933-81.067 76.8-140.8 76.8-51.2 0-93.867-12.8-123.733-46.933-34.133-34.133-46.933-72.533-46.933-123.733 0-46.933 17.067-89.6 46.933-123.733s72.533-46.933 123.733-46.933c59.733 0 115.2 29.867 140.8 81.067l51.2-29.867c-17.067-34.133-46.933-59.733-81.067-81.067s-68.267-29.867-110.933-29.867zM486.4 226.133v443.733h59.733v-443.733h-59.733zM640 669.867h170.667c59.733 0 110.933-21.333 149.333-64s59.733-93.867 59.733-157.867-21.333-115.2-59.733-157.867c-38.4-42.667-89.6-64-149.333-64h-170.667v443.733zM699.733 281.6h115.2c46.933 0 81.067 17.067 110.933 46.933s42.667 72.533 42.667 119.467-12.8 85.333-42.667 119.467c-29.867 29.867-64 46.933-110.933 46.933h-115.2v-332.8z" />
<glyph unicode="&#xe90b;" glyph-name="circle" d="M512-64c-281.6 0-512 230.4-512 512s230.4 512 512 512c281.6 0 512-230.4 512-512s-230.4-512-512-512zM512 917.333c-260.267 0-469.333-209.067-469.333-469.333s209.067-469.333 469.333-469.333 469.333 209.067 469.333 469.333-209.067 469.333-469.333 469.333z" />
<glyph unicode="&#xe90c;" glyph-name="conference" d="M930.133 174.933c55.467-29.867 93.867-85.333 93.867-153.6v-42.667c0-25.6-17.067-42.667-42.667-42.667h-256c-25.6 0-42.667 17.067-42.667 42.667 0-25.6-17.067-42.667-42.667-42.667h-256c-25.6 0-42.667 17.067-42.667 42.667 0-25.6-17.067-42.667-42.667-42.667h-256c-25.6 0-42.667 17.067-42.667 42.667v42.667c0 68.267 38.4 123.733 93.867 153.6-29.867 21.333-51.2 59.733-51.2 102.4 0 72.533 55.467 128 128 128s128-55.467 128-128c0-42.667-21.333-81.067-51.2-102.4 55.467-29.867 93.867-85.333 93.867-153.6 0 68.267 38.4 123.733 93.867 153.6-29.867 21.333-51.2 59.733-51.2 102.4 0 72.533 55.467 128 128 128s128-55.467 128-128c0-42.667-21.333-81.067-51.2-102.4 55.467-29.867 93.867-85.333 93.867-153.6 0 68.267 38.4 123.733 93.867 153.6-29.867 21.333-51.2 59.733-51.2 102.4 0 72.533 55.467 128 128 128s128-55.467 128-128c0-42.667-21.333-81.067-51.2-102.4zM512 661.333c-46.933 0-85.333 38.4-85.333 85.333s38.4 85.333 85.333 85.333 85.333-38.4 85.333-85.333-38.4-85.333-85.333-85.333zM981.333 960c25.6 0 42.667-17.067 42.667-42.667v-426.667c0-25.6-17.067-42.667-42.667-42.667h-938.667c-25.6 0-42.667 17.067-42.667 42.667v426.667c0 25.6 17.067 42.667 42.667 42.667h938.667zM938.667 533.333v341.333h-853.333v-341.333h302.933c17.067 51.2 59.733 85.333 123.733 85.333s106.667-34.133 123.733-85.333h302.933z" />
<glyph unicode="&#xe90d;" glyph-name="contactus" d="M823.467 170.667c34.133-34.133 38.4-85.333 4.267-123.733l-38.4-46.933c-29.867-29.867-64-64-119.467-68.267 0 0-4.267 0-4.267 0-42.667 0-85.333 17.067-145.067 55.467s-140.8 102.4-238.933 196.267c-157.867 145.067-234.667 234.667-264.533 302.933-34.133 81.067-8.533 123.733 25.6 170.667v0l55.467 68.267c17.067 21.333 38.4 29.867 59.733 29.867s46.933-8.533 64-21.333l102.4-98.133c34.133-34.133 38.4-85.333 4.267-123.733l-12.8-12.8c-25.6-25.6-4.267-59.733 8.533-76.8 21.333-38.4 64-76.8 85.333-98.133 29.867-29.867 102.4-93.867 149.333-93.867 8.533 0 21.333 4.267 25.6 12.8l12.8 12.8c17.067 17.067 38.4 25.6 59.733 25.6s46.933-8.533 64-21.333l102.4-89.6zM814.933 960c115.2 0 209.067-93.867 209.067-209.067s-93.867-209.067-209.067-209.067h-72.533l-123.733-115.2c-12.8-12.8-34.133-17.067-51.2-8.533s-29.867 25.6-29.867 42.667v85.333c-46.933 8.533-89.6 29.867-123.733 64-34.133 38.4-55.467 85.333-55.467 140.8 0 115.2 93.867 209.067 209.067 209.067h247.467zM576 721.067c17.067 0 29.867 12.8 29.867 29.867s-12.8 29.867-29.867 29.867c0 0 0 0 0 0h-34.133c-17.067 0-29.867-12.8-29.867-29.867s12.8-29.867 29.867-29.867h34.133zM708.267 721.067c17.067 0 29.867 12.8 29.867 29.867s-12.8 29.867-29.867 29.867c0 0 0 0 0 0h-34.133c-17.067 0-29.867-12.8-29.867-29.867s12.8-29.867 29.867-29.867h34.133zM844.8 721.067c17.067 0 29.867 12.8 29.867 29.867s-12.8 29.867-29.867 29.867c0 0 0 0 0 0h-34.133c-17.067 0-29.867-12.8-29.867-29.867s12.8-29.867 29.867-29.867h34.133z" />
<glyph unicode="&#xe90e;" glyph-name="content" d="M256 960c29.867 0 51.2-21.333 51.2-51.2v-921.6c0-29.867-21.333-51.2-51.2-51.2h-204.8c-29.867 0-51.2 21.333-51.2 51.2v921.6c0 29.867 21.333 51.2 51.2 51.2h204.8zM204.8 448v409.6h-102.4v-409.6h102.4zM614.4 755.2c29.867 0 51.2-21.333 51.2-51.2v-716.8c0-29.867-21.333-51.2-51.2-51.2h-204.8c-29.867 0-51.2 21.333-51.2 51.2v716.8c0 29.867 21.333 51.2 51.2 51.2 0 0 204.8 0 204.8 0zM563.2 243.2v409.6h-102.4v-409.6h102.4zM972.8 857.6c29.867 0 51.2-21.333 51.2-51.2v-819.2c0-29.867-21.333-51.2-51.2-51.2h-204.8c-29.867 0-51.2 21.333-51.2 51.2v819.2c0 29.867 21.333 51.2 51.2 51.2 0 0 204.8 0 204.8 0zM921.6 345.6v409.6h-102.4v-409.6h102.4z" />
<glyph unicode="&#xe90f;" glyph-name="developmentpartner" d="M576 477.867c17.067 0 29.867-12.8 29.867-29.867v-392.533h-247.467v392.533c0 17.067 12.8 29.867 29.867 29.867h187.733zM1019.733 644.267c8.533-12.8 4.267-34.133-8.533-42.667-4.267-4.267-12.8-4.267-17.067-4.267h-89.6v-541.867h-238.933v541.867h-89.6c-17.067 0-29.867 12.8-29.867 29.867 0 4.267 0 12.8 4.267 17.067l209.067 302.933c12.8 17.067 38.4 17.067 51.2 0l209.067-302.933zM268.8 298.667c17.067 0 29.867-12.8 29.867-29.867v-213.333h-238.933v213.333c0 17.067 12.8 29.867 29.867 29.867h179.2zM994.133-4.267c17.067 0 29.867-12.8 29.867-29.867s-12.8-29.867-29.867-29.867h-964.267c-17.067 0-29.867 12.8-29.867 29.867s12.8 29.867 29.867 29.867h964.267z" />
<glyph unicode="&#xe910;" glyph-name="dropdown" d="M1024 704l-512-512-512 512z" />
<glyph unicode="&#xe911;" glyph-name="edit" d="M0 149.333v-213.333h213.333l627.2 627.2-213.333 213.333-627.2-627.2zM1006.933 729.6c21.333 21.333 21.333 59.733 0 81.067 0 0 0 0 0 0l-132.267 132.267c-21.333 21.333-59.733 21.333-81.067 0 0 0 0 0 0 0l-102.4-102.4 213.333-213.333 102.4 102.4z" />
<glyph unicode="&#xe912;" glyph-name="facebook" d="M704-64v396.8h132.267l21.333 153.6h-153.6v98.133c0 42.667 12.8 76.8 76.8 76.8h81.067v136.533c-38.4 4.267-81.067 4.267-119.467 4.267-119.467 0-196.267-72.533-196.267-204.8v-115.2h-132.267v-153.6h132.267v-392.533h-490.667c-29.867 0-55.467 25.6-55.467 55.467v913.067c0 29.867 25.6 55.467 55.467 55.467h908.8c34.133 0 59.733-25.6 59.733-55.467v-908.8c0-29.867-25.6-55.467-55.467-55.467h-264.533z" />
<glyph unicode="&#xe913;" glyph-name="founders" d="M315.733 900.267c51.2 0 89.6-42.667 89.6-93.867s-42.667-89.6-89.6-89.6-93.867 42.667-93.867 89.6c0 51.2 42.667 93.867 93.867 93.867v0zM618.667 657.067c34.133 0 59.733-25.6 59.733-59.733s-25.6-59.733-59.733-59.733h-183.467v-200.533l59.733-324.267c8.533-34.133-12.8-64-42.667-72.533s-68.267 12.8-76.8 42.667l-64 264.533-59.733-268.8c-8.533-34.133-42.667-51.2-76.8-42.667-29.867 8.533-51.2 42.667-42.667 72.533 0 0 0 0 0 0l51.2 294.4c-8.533 0-46.933-8.533-55.467-8.533-34.133 0-59.733 25.6-59.733 59.733v183.467c0 68.267 55.467 119.467 119.467 119.467 4.267 0 430.933 0 430.933 0zM874.667 836.267l68.267-68.267c8.533-8.533 12.8-21.333 8.533-34.133s-17.067-17.067-29.867-17.067h-332.8v213.333c0 17.067 12.8 29.867 29.867 29.867 0 0 0 0 0 0h302.933c12.8 0 21.333-8.533 29.867-17.067 4.267-12.8 0-25.6-8.533-34.133l-68.267-72.533zM618.667 477.867c8.533 0 21.333 0 29.867 4.267v-516.267c0-17.067-12.8-29.867-29.867-29.867 0 0 0 0 0 0-17.067 0-29.867 12.8-29.867 29.867 0 0 0 0 0 0v512h29.867z" />
<glyph unicode="&#xe914;" glyph-name="host" d="M315.733 132.267c0 110.933 72.533 183.467 183.467 183.467s183.467-72.533 183.467-183.467h-366.933zM499.2 375.467c-68.267 0-123.733 55.467-123.733 123.733s55.467 123.733 123.733 123.733c68.267 0 123.733-55.467 123.733-123.733s-55.467-123.733-123.733-123.733zM853.333 814.933c55.467 0 98.133-42.667 98.133-98.133v-682.667c0-55.467-42.667-98.133-98.133-98.133h-682.667c-55.467 0-98.133 42.667-98.133 98.133v682.667c0 55.467 42.667 98.133 98.133 98.133h46.933v-98.133h-46.933v-682.667h682.667v682.667h-46.933v98.133h46.933zM610.133 861.867h98.133v-145.067h-392.533v145.067h98.133c0 55.467 42.667 98.133 98.133 98.133s98.133-42.667 98.133-98.133z" />
<glyph unicode="&#xe915;" glyph-name="in" d="M866.133 85.333h-153.6v238.933c0 55.467 0 128-81.067 128s-89.6-59.733-89.6-123.733v-243.2h-140.8v486.4h145.067v-68.267c21.333 38.4 68.267 76.8 145.067 76.8 153.6 0 183.467-102.4 183.467-234.667l-8.533-260.267zM226.133 640c-21.333 0-46.933 8.533-64 25.6-12.8 17.067-21.333 38.4-21.333 59.733 0 46.933 38.4 89.6 89.6 89.6 46.933 0 89.6-38.4 89.6-89.6s-42.667-85.333-93.867-85.333v0zM302.933 85.333h-149.333v486.4h153.6l-4.267-486.4zM942.933 955.733h-866.133c-42.667 0-76.8-34.133-76.8-72.533v-870.4c0-42.667 34.133-72.533 76.8-72.533h870.4c42.667 0 76.8 34.133 76.8 72.533v870.4c-4.267 38.4-38.4 72.533-81.067 72.533v0 0z" />
<glyph unicode="&#xe916;" glyph-name="internet" d="M512 960c-281.6 0-512-230.4-512-512s230.4-512 512-512 512 230.4 512 512-230.4 512-512 512zM106.667 396.8h153.6c8.533-123.733 34.133-230.4 81.067-320-132.267 59.733-217.6 179.2-234.667 320zM256 499.2h-149.333c17.067 140.8 106.667 260.267 234.667 320-51.2-93.867-76.8-204.8-85.333-320v0zM541.867 38.4c-8.533 0-17.067 0-29.867 0-8.533 0-17.067 0-29.867 0-72.533 85.333-115.2 209.067-123.733 358.4h311.467c-8.533-140.8-55.467-264.533-128-358.4zM358.4 499.2c8.533 132.267 51.2 256 123.733 358.4 8.533 0 17.067 0 25.6 0s17.067 0 25.6 0c51.2-68.267 123.733-192 136.533-358.4h-311.467zM691.2 81.067c46.933 93.867 76.8 200.533 85.333 315.733h140.8c-17.067-136.533-102.4-256-226.133-315.733v0zM776.533 499.2c-4.267 110.933-38.4 221.867-93.867 320 128-59.733 213.333-179.2 234.667-320h-140.8z" />
<glyph unicode="&#xe917;" glyph-name="location" d="M768 320c153.6-34.133 256-102.4 256-179.2 0-115.2-230.4-204.8-512-204.8s-512 89.6-512 204.8c0 76.8 102.4 140.8 256 179.2v-98.133c-93.867-17.067-153.6-46.933-153.6-81.067 0-55.467 183.467-102.4 409.6-102.4s409.6 46.933 409.6 102.4c0 34.133-59.733 59.733-153.6 81.067v98.133zM819.2 652.8c0-204.8-307.2-563.2-307.2-563.2s-307.2 358.4-307.2 563.2c0 170.667 136.533 307.2 307.2 307.2s307.2-136.533 307.2-307.2zM409.6 652.8c0-55.467 46.933-102.4 102.4-102.4s102.4 46.933 102.4 102.4c0 55.467-46.933 102.4-102.4 102.4s-102.4-46.933-102.4-102.4z" />
<glyph unicode="&#xe918;" glyph-name="menu" d="M0 904.533h1024v-115.2h-1024v115.2zM341.333 503.467h682.667v-115.2h-682.667v115.2zM0 106.667h1024v-115.2h-1024v115.2z" />
<glyph unicode="&#xe919;" glyph-name="ourpartners" d="M217.6 486.4c17.067-17.067 17.067-42.667 0-64 0 0 0 0 0 0l-106.667-102.4c-17.067-17.067-46.933-17.067-64 0s-17.067 42.667 0 64c0 0 0 0 0 0l106.667 102.4c17.067 17.067 42.667 17.067 64 0zM320 384c17.067-17.067 17.067-42.667 0-64 0 0 0 0 0 0l-106.667-102.4c-17.067-17.067-46.933-17.067-64 0s-17.067 42.667 0 64c0 0 0 0 0 0l106.667 102.4c21.333 17.067 46.933 17.067 64 0zM426.667 277.333c17.067-17.067 17.067-42.667 0-64 0 0 0 0 0 0l-106.667-102.4c-17.067-17.067-46.933-17.067-64 0s-17.067 42.667 0 64c0 0 0 0 0 0l106.667 102.4c21.333 17.067 46.933 17.067 64 0zM533.333 174.933c17.067-17.067 17.067-42.667 0-64 0 0 0 0 0 0l-106.667-106.667c-17.067-17.067-46.933-17.067-64 0s-17.067 42.667 0 64c0 0 0 0 0 0l106.667 102.4c17.067 21.333 46.933 21.333 64 4.267zM1015.467 708.267c12.8-12.8 12.8-29.867 0-42.667 0 0 0 0 0 0l-25.6-21.333-234.667 230.4 21.333 21.333c12.8 12.8 29.867 12.8 42.667 0 0 0 196.267-187.733 196.267-187.733zM968.533 580.267c12.8-12.8 12.8-29.867 0-42.667 0 0 0 0 0 0l-64-64-234.667 230.4c-46.933 46.933-123.733 46.933-170.667 0l-51.2-51.2c-17.067-17.067-46.933-17.067-64 0s-17.067 42.667 0 64c0 0 0 0 0 0l93.867 93.867c68.267 68.267 183.467 68.267 256 0 0 0 234.667-230.4 234.667-230.4zM247.467 874.667l21.333-21.333-234.667-230.4-25.6 21.333c-12.8 12.8-12.8 29.867 0 42.667 0 0 0 0 0 0l196.267 187.733c12.8 8.533 29.867 8.533 42.667 0zM597.333 68.267c17.067-17.067 17.067-42.667 0-64 0 0 0 0 0 0-17.067-17.067-46.933-17.067-64 0l-8.533 8.533 51.2 51.2c4.267 4.267 8.533 8.533 8.533 12.8l12.8-8.533zM917.333 384c17.067-17.067 17.067-42.667 0-64 0 0 0 0 0 0-17.067-17.067-46.933-17.067-64 0l-115.2 115.2c-12.8 12.8-29.867 12.8-42.667 0s-12.8-29.867 0-42.667c0 0 0 0 0 0l115.2-115.2c17.067-17.067 17.067-42.667 0-64 0 0 0 0 0 0-17.067-17.067-46.933-17.067-64 0l-115.2 115.2c-12.8 12.8-29.867 12.8-42.667 0s-12.8-29.867 0-42.667c0 0 0 0 0 0l115.2-115.2c17.067-17.067 17.067-42.667 0-64 0 0 0 0 0 0-17.067-17.067-46.933-17.067-64 0l-34.133 34.133c0 25.6-12.8 51.2-29.867 72.533-21.333 21.333-46.933 29.867-76.8 29.867 0 29.867-8.533 55.467-29.867 72.533-21.333 21.333-46.933 29.867-76.8 29.867 0 29.867-8.533 55.467-29.867 72.533-21.333 21.333-46.933 29.867-76.8 29.867 0 29.867-12.8 55.467-29.867 72.533-42.667 38.4-106.667 38.4-149.333 0l-51.2-46.933c-12.8 38.4-4.267 81.067 21.333 106.667l192 187.733c38.4 38.4 89.6 55.467 136.533 51.2l-64-59.733c-38.4-38.4-42.667-102.4 0-145.067 0 0 0 0 0 0 42.667-38.4 106.667-38.4 149.333 0l51.2 51.2c21.333 21.333 59.733 21.333 85.333 0l290.133-281.6z" />
<glyph unicode="&#xe91a;" glyph-name="pause" d="M119.467 960h204.8c25.6 0 46.933-17.067 46.933-42.667v-938.667c0-21.333-21.333-42.667-46.933-42.667h-204.8c-25.6 0-46.933 17.067-46.933 42.667v938.667c0 25.6 21.333 42.667 46.933 42.667zM904.533 960c25.6 0 46.933-17.067 46.933-42.667v-938.667c0-21.333-21.333-42.667-46.933-42.667h-204.8c-25.6 0-46.933 17.067-46.933 42.667v938.667c0 21.333 21.333 42.667 46.933 42.667h204.8z" />
<glyph unicode="&#xe91b;" glyph-name="play" d="M866.133 507.733l-618.667 439.467c-25.6 17.067-55.467 17.067-76.8 4.267-25.6-12.8-42.667-38.4-42.667-64v-878.933c0-25.6 17.067-51.2 42.667-64s55.467-8.533 76.8 4.267l618.667 439.467c17.067 12.8 29.867 34.133 29.867 59.733 0 21.333-12.8 46.933-29.867 59.733v0z" />
<glyph unicode="&#xe91c;" glyph-name="profile" d="M1002.667 661.333v85.333h-46.933c-4.267 25.6-17.067 51.2-29.867 76.8l34.133 34.133-55.467 59.733-34.133-34.133c-21.333 12.8-46.933 25.6-72.533 29.867v46.933h-81.067v-46.933c-25.6-4.267-51.2-17.067-72.533-29.867l-29.867 34.133-59.733-64 34.133-34.133c-12.8-21.333-25.6-46.933-29.867-76.8h-46.933v-85.333h46.933c4.267-25.6 17.067-51.2 29.867-76.8l-34.133-25.6 59.733-59.733 34.133 34.133c21.333-12.8 46.933-25.6 72.533-29.867v-51.2h81.067v46.933c25.6 4.267 51.2 17.067 72.533 29.867l34.133-34.133 59.733 59.733-34.133 34.133c12.8 21.333 25.6 46.933 29.867 76.8h38.4zM759.467 618.667c-46.933 0-81.067 38.4-81.067 85.333s38.4 85.333 81.067 85.333c46.933 0 81.067-38.4 81.067-85.333s-38.4-85.333-81.067-85.333zM349.867 618.667c89.6 0 162.133-76.8 162.133-170.667s-72.533-170.667-162.133-170.667-162.133 76.8-162.133 170.667 68.267 170.667 162.133 170.667zM349.867 234.667c192 0 328.533-106.667 328.533-256v-42.667h-657.067v42.667c0 149.333 132.267 256 328.533 256z" />
<glyph unicode="&#xe91d;" glyph-name="replay" d="M1019.733 328.533c4.267-4.267 4.267-17.067 0-21.333-4.267-8.533-12.8-12.8-21.333-12.8h-98.133c-25.6-59.733-68.267-115.2-119.467-153.6-76.8-59.733-174.933-93.867-273.067-93.867-12.8 0-25.6 0-38.4 0-110.933 8.533-209.067 55.467-281.6 136.533-17.067 21.333-17.067 51.2 4.267 68.267 0 0 0 0 4.267 0 21.333 17.067 55.467 17.067 72.533-4.267 55.467-59.733 128-93.867 213.333-102.4s166.4 17.067 230.4 72.533c25.6 21.333 51.2 46.933 68.267 76.8h-81.067c-8.533 0-17.067 4.267-21.333 12.8s-4.267 17.067 0 21.333l149.333 196.267c4.267 4.267 12.8 8.533 17.067 8.533 8.533 0 12.8-4.267 17.067-8.533l157.867-196.267zM187.733 371.2c-4.267-4.267-8.533-8.533-17.067-8.533s-12.8 4.267-17.067 8.533l-149.333 196.267c-4.267 8.533-4.267 17.067 0 21.333 4.267 8.533 12.8 12.8 21.333 12.8h98.133c68.267 162.133 238.933 264.533 426.667 247.467 110.933-8.533 209.067-59.733 281.6-136.533 17.067-21.333 17.067-51.2-4.267-68.267s-55.467-17.067-72.533 4.267c-55.467 59.733-132.267 98.133-213.333 102.4-128 8.533-243.2-51.2-302.933-149.333h85.333c8.533 0 17.067-4.267 21.333-12.8s4.267-17.067 0-21.333l-157.867-196.267z" />
<glyph unicode="&#xe91e;" glyph-name="search" d="M439.467 85.333c98.133 0 192 34.133 268.8 93.867l238.933-238.933 76.8 76.8-238.933 238.933c59.733 76.8 93.867 170.667 93.867 268.8-4.267 238.933-200.533 435.2-439.467 435.2s-439.467-196.267-439.467-439.467 196.267-435.2 439.467-435.2zM439.467 849.067c179.2 0 328.533-149.333 328.533-328.533s-149.333-328.533-328.533-328.533-328.533 149.333-328.533 328.533 145.067 328.533 328.533 328.533z" />
<glyph unicode="&#xe91f;" glyph-name="switter" d="M1024 763.733c-38.4-17.067-81.067-29.867-119.467-34.133 42.667 25.6 76.8 68.267 93.867 115.2-42.667-25.6-85.333-42.667-132.267-51.2-64 68.267-170.667 85.333-251.733 42.667s-128-140.8-106.667-234.667c-170.667 8.533-324.267 89.6-430.933 217.6-25.6-25.6-34.133-64-34.133-98.133 0-72.533 38.4-136.533 93.867-174.933-34.133 0-68.267 8.533-93.867 25.6v-4.267c0-98.133 72.533-187.733 170.667-204.8-29.867-8.533-64-8.533-93.867-4.267 25.6-85.333 106.667-145.067 196.267-145.067-89.6-68.267-200.533-102.4-311.467-85.333 98.133-59.733 209.067-93.867 320-93.867 388.267 0 597.333 320 597.333 597.333 0 8.533 0 17.067 0 25.6 38.4 29.867 72.533 64 102.4 106.667v0z" />
<glyph unicode="&#xe920;" glyph-name="views" d="M512 772.267c-294.4 0-512-324.267-512-324.267s217.6-324.267 512-324.267 512 324.267 512 324.267-217.6 324.267-512 324.267zM512 260.267c-102.4 0-187.733 85.333-187.733 187.733s85.333 187.733 187.733 187.733 187.733-85.333 187.733-187.733-85.333-187.733-187.733-187.733zM512 541.867c51.2 0 93.867-42.667 93.867-93.867s-42.667-93.867-93.867-93.867-93.867 42.667-93.867 93.867 42.667 93.867 93.867 93.867z" />
<glyph unicode="&#xe921;" glyph-name="angle-up" d="M21.333 192c38.4-34.133 98.133-34.133 132.267 0l358.4 332.8 354.133-337.067c38.4-34.133 98.133-34.133 136.533 4.267l-4.267-4.267c34.133 29.867 38.4 85.333 4.267 119.467 0 0-4.267 4.267-4.267 4.267l-418.133 396.8c-38.4 34.133-98.133 34.133-132.267 0l-418.133-396.8c-38.4-34.133-38.4-85.333-8.533-119.467 4.267-4.267 4.267-4.267 4.267-4.267l-4.267 4.267z" />
<glyph unicode="&#xe922;" glyph-name="sort" d="M260.267 951.467l-200.533-192 46.933-46.933 140.8 136.533v-849.067h64v849.067l140.8-136.533 46.933 46.933-196.267 192c-12.8 12.8-29.867 12.8-42.667 0zM917.333 183.467l-140.8-136.533v849.067h-64v-849.067l-140.8 136.533-46.933-46.933 196.267-192c4.267-4.267 12.8-8.533 21.333-8.533s17.067 4.267 21.333 8.533l196.267 192-42.667 46.933z" />
<glyph unicode="&#xe923;" glyph-name="angle-right" d="M256 938.667c-34.133-38.4-34.133-98.133 0-132.267l332.8-358.4-337.067-354.133c-34.133-38.4-34.133-98.133 4.267-136.533l-4.267 4.267c29.867-34.133 85.333-38.4 119.467-4.267 0 0 4.267 4.267 4.267 4.267l396.8 418.133c34.133 38.4 34.133 98.133 0 132.267l-396.8 418.133c-34.133 38.4-85.333 38.4-119.467 8.533-4.267-4.267-4.267-4.267-4.267-4.267l4.267 4.267z" />
<glyph unicode="&#xe924;" glyph-name="angle-left" d="M768-42.667c34.133 38.4 34.133 98.133 0 132.267l-332.8 358.4 337.067 354.133c34.133 38.4 34.133 98.133-4.267 136.533l4.267-4.267c-29.867 34.133-85.333 38.4-119.467 4.267 0 0-4.267-4.267-4.267-4.267l-396.8-418.133c-34.133-38.4-34.133-98.133 0-132.267l396.8-418.133c34.133-38.4 85.333-38.4 119.467-8.533 4.267 4.267 4.267 4.267 4.267 4.267l-4.267-4.267z" />
<glyph unicode="&#xe925;" glyph-name="datepicker" d="M930.133 844.8h-93.867v93.867h-93.867v-234.667h-93.867v140.8h-277.333v93.867h-93.867v-234.667h-89.6v140.8h-93.867c-51.2 0-93.867-42.667-93.867-93.867v-699.733c0-51.2 42.667-93.867 93.867-93.867h836.267c51.2 0 93.867 42.667 93.867 93.867v699.733c0 51.2-42.667 93.867-93.867 93.867zM324.267 98.133h-183.467v187.733h187.733v-187.733zM324.267 379.733h-183.467v183.467h187.733v-183.467zM605.867 98.133h-187.733v187.733h187.733v-187.733zM605.867 379.733h-187.733v183.467h187.733v-183.467zM883.2 379.733h-187.733v183.467h187.733v-183.467z" />
<glyph unicode="&#xe926;" glyph-name="project" d="M1024 733.867v153.6c0 29.867-21.333 51.2-51.2 51.2h-921.6c-29.867 0-51.2-21.333-51.2-51.2v-153.6c0-29.867 21.333-55.467 51.2-55.467v-516.267h-51.2v-102.4h460.8v-102.4h102.4v102.4h460.8v102.4h-51.2v516.267c29.867 0 51.2 25.6 51.2 55.467v0zM307.2 268.8c-85.333 0-153.6 68.267-153.6 153.6s68.267 153.6 153.6 153.6v-153.6h153.6c0-85.333-68.267-153.6-153.6-153.6zM358.4 473.6v153.6c85.333 0 153.6-68.267 153.6-153.6h-153.6zM870.4 217.6h-307.2v102.4h307.2v-102.4zM870.4 371.2h-204.8v102.4h204.8v-102.4zM870.4 524.8h-153.6v102.4h153.6v-102.4zM921.6 785.067h-819.2v51.2h819.2v-51.2z" />
<glyph unicode="&#xe927;" glyph-name="postbox" d="M311.467 665.6c136.533 0 247.467-110.933 247.467-243.2v-294.4c0-25.6-21.333-46.933-51.2-46.933h-392.533c-25.6 0-51.2 21.333-51.2 46.933v294.4c0 136.533 110.933 243.2 247.467 243.2v0zM413.867 324.267v98.133h-200.533v-98.133h200.533zM712.533 665.6c136.533 0 247.467-110.933 247.467-243.2v-294.4c0-25.6-21.333-46.933-51.2-46.933h-200.533v-145.067h-98.133v486.4c0 102.4-51.2 192-132.267 243.2h132.267v294.4h247.467v-145.067h-149.333c4.267 0 4.267-149.333 4.267-149.333z" />
<glyph unicode="&#xe928;" glyph-name="banking-bill" d="M896 949.76c-15.36 10.24-35.84 10.24-51.2 0l-179.2-87.040-128 87.040c-15.36 10.24-40.96 10.24-56.32 0l-128-81.92-179.2 87.040c-20.48 10.24-51.2 0-66.56-25.6-5.12-5.12-5.12-10.24-5.12-20.48v-921.6c0-15.36 10.24-35.84 25.6-46.080s35.84-10.24 51.2 0l179.2 87.040 128-87.040c15.36-10.24 40.96-10.24 56.32 0l128 87.040 179.2-87.040c25.6-10.24 56.32 0 66.56 20.48 5.12 10.24 5.12 15.36 5.12 25.6v921.6c0 15.36-10.24 35.84-25.6 40.96zM819.2 69.12l-133.12 66.56c-15.36 10.24-35.84 5.12-51.2-5.12l-122.88-81.92-122.88 81.92c-15.36 10.24-35.84 10.24-51.2 5.12l-133.12-66.56v757.76l133.12-66.56c15.36-10.24 35.84-5.12 51.2 5.12l122.88 81.92 122.88-81.92c15.36-10.24 35.84-10.24 51.2-5.12l133.12 66.56v-757.76zM563.2 704h-102.4v-56.32c-56.32-10.24-102.4-61.44-102.4-122.88 0-71.68 56.32-128 128-128h51.2c15.36 0 25.6-10.24 25.6-25.6s-10.24-25.6-25.6-25.6h-179.2v-102.4h102.4v-51.2h102.4v56.32c56.32 10.24 102.4 61.44 102.4 122.88 0 71.68-56.32 128-128 128h-51.2c-15.36 0-25.6 10.24-25.6 25.6s10.24 25.6 25.6 25.6h179.2v102.4h-102.4v51.2z" />
<glyph unicode="&#xe929;" glyph-name="chart" d="M29.867 960c12.8 0 25.6-12.8 25.6-29.867v-968.533c0-12.8-12.8-25.6-25.6-25.6s-29.867 12.8-29.867 29.867v964.267c0 17.067 12.8 29.867 29.867 29.867zM226.133 789.333h738.133c34.133 0 59.733-25.6 59.733-55.467s-25.6-55.467-55.467-55.467h-742.4c-29.867-4.267-55.467 21.333-55.467 55.467s25.6 55.467 55.467 55.467zM226.133 503.467h285.867c29.867 0 55.467-25.6 55.467-55.467s-25.6-55.467-55.467-55.467h-285.867c-29.867 0-55.467 25.6-55.467 55.467s25.6 55.467 55.467 55.467zM226.133 221.867h512c29.867 0 55.467-25.6 55.467-55.467s-25.6-55.467-55.467-55.467h-512c-29.867-4.267-55.467 21.333-55.467 51.2 0 34.133 25.6 59.733 55.467 59.733z" />
<glyph unicode="&#xe92a;" glyph-name="delete" d="M332.8 832l12.8 51.2c12.8 42.667 55.467 76.8 102.4 76.8h132.267c42.667 0 85.333-34.133 98.133-76.8l12.8-51.2h183.467c21.333 0 34.133-17.067 34.133-38.4s-17.067-38.4-34.133-38.4h-8.533l-25.6-729.6c0-51.2-46.933-93.867-98.133-93.867h-460.8c-51.2 0-93.867 42.667-98.133 93.867l-25.6 733.867h-8.533c-21.333 0-34.133 17.067-34.133 38.4 0 0 0 0 0 0 0 21.333 12.8 34.133 34.133 34.133h183.467zM409.6 832h204.8l-8.533 29.867c-4.267 12.8-17.067 21.333-29.867 21.333h-132.267c-12.8 0-25.6-12.8-29.867-21.333 4.267 0-4.267-29.867-4.267-29.867zM230.4 759.467l25.6-725.333c0-12.8 12.8-25.6 25.6-25.6h465.067c12.8 0 21.333 12.8 25.6 25.6l25.6 725.333h-567.467zM482.133 627.2c0 17.067 12.8 29.867 29.867 29.867s29.867-12.8 29.867-29.867v-503.467c0-17.067-12.8-29.867-29.867-29.867s-29.867 12.8-29.867 29.867v503.467zM324.267 627.2c0 17.067 12.8 29.867 29.867 29.867s29.867-12.8 29.867-29.867c0 0 0 0 0 0l12.8-503.467c0-17.067-12.8-29.867-29.867-29.867s-29.867 12.8-29.867 29.867c0 0 0 0 0 0l-12.8 503.467zM644.267 627.2c0 17.067 12.8 29.867 29.867 29.867 0 0 0 0 0 0 17.067 0 29.867-12.8 29.867-29.867l-12.8-503.467c0-17.067-12.8-29.867-29.867-29.867 0 0 0 0 0 0-17.067 0-29.867 12.8-29.867 29.867l12.8 503.467z" />
<glyph unicode="&#xe92b;" glyph-name="enlarge" d="M162.133 866.133l273.067-268.8c12.8-17.067 12.8-46.933-4.267-59.733-17.067-17.067-42.667-17.067-64-4.267l-268.8 264.533v-106.667c4.267-17.067-4.267-38.4-21.333-46.933s-38.4-8.533-55.467 0c-17.067 8.533-25.6 25.6-21.333 46.933v221.867c0 25.6 21.333 46.933 51.2 46.933h221.867c17.067 4.267 38.4-4.267 51.2-21.333s12.8-38.4 0-51.2c-12.8-17.067-34.133-25.6-55.467-21.333h-106.667zM977.067 960c25.6 0 46.933-21.333 46.933-46.933v-221.867c4.267-17.067-4.267-38.4-21.333-46.933s-38.4-8.533-55.467 0c-17.067 8.533-25.6 29.867-21.333 46.933v106.667l-273.067-264.533c-12.8-21.333-46.933-29.867-68.267-12.8-12.8 8.533-17.067 17.067-21.333 29.867-4.267 21.333 4.267 38.4 21.333 51.2l273.067 268.8h-110.933c-17.067-4.267-38.4 4.267-51.2 21.333s-12.8 38.4 0 51.2c12.8 17.067 29.867 25.6 51.2 21.333 8.533-4.267 230.4-4.267 230.4-4.267zM366.933 366.933c21.333 12.8 46.933 12.8 64-4.267s21.333-42.667 4.267-59.733l-273.067-268.8h110.933c17.067 4.267 38.4-4.267 51.2-21.333s12.8-38.4 0-51.2c-12.8-17.067-29.867-25.6-51.2-21.333h-221.867c-12.8 0-25.6 4.267-34.133 12.8-12.8 8.533-17.067 17.067-17.067 29.867v221.867c-4.267 17.067 4.267 38.4 21.333 46.933s38.4 8.533 55.467 0c17.067-8.533 25.6-29.867 21.333-46.933v-106.667l268.8 268.8zM977.067 256c12.8 0 25.6-4.267 34.133-12.8s12.8-21.333 12.8-34.133v-221.867c0-12.8-4.267-25.6-12.8-34.133s-21.333-12.8-34.133-12.8h-221.867c-17.067-4.267-38.4 4.267-51.2 21.333s-12.8 38.4 0 51.2c12.8 17.067 29.867 25.6 51.2 21.333h106.667l-273.067 268.8c-21.333 12.8-29.867 42.667-17.067 64 8.533 12.8 17.067 21.333 34.133 21.333 21.333 4.267 38.4-4.267 51.2-21.333l273.067-264.533v106.667c0 12.8 4.267 25.6 12.8 34.133 8.533 4.267 21.333 12.8 34.133 12.8z" />
<glyph unicode="&#xe92c;" glyph-name="filter" d="M853.333 960h-682.667c-46.933 0-93.867-29.867-110.933-76.8s-8.533-106.667 29.867-140.8l294.4-256v-396.8c0-46.933 25.6-89.6 68.267-110.933l59.733-29.867c25.6-12.8 55.467-12.8 81.067 4.267s38.4 42.667 38.4 72.533v460.8l298.667 256c38.4 38.4 46.933 93.867 25.6 140.8-8.533 46.933-55.467 76.8-102.4 76.8zM878.933 802.133l-311.467-268.8c-8.533-8.533-12.8-21.333-12.8-29.867v-482.133l-59.733 29.867c-12.8 8.533-21.333 21.333-21.333 38.4v413.867c0 12.8-4.267 25.6-12.8 29.867l-311.467 268.8c-12.8 12.8-17.067 34.133-8.533 51.2 4.267 12.8 17.067 21.333 29.867 21.333h682.667c12.8 0 25.6-8.533 29.867-25.6 8.533-12.8 8.533-29.867-4.267-46.933v0z" />
<glyph unicode="&#xe92d;" glyph-name="focus" d="M0 960h311.467v-102.4h-209.067v-209.067h-102.4v311.467zM102.4 247.467v-209.067h209.067v-102.4h-311.467v311.467h102.4zM712.533 960h311.467v-311.467h-102.4v209.067h-209.067c0 0 0 102.4 0 102.4zM1024 247.467v-311.467h-311.467v102.4h209.067v209.067c0 0 102.4 0 102.4 0z" />
<glyph unicode="&#xe92e;" glyph-name="group" d="M0 896h384v-384h-384v384zM0 384h1024v-128h-1024v128zM0 128h1024v-128h-1024v128z" />
<glyph unicode="&#xe92f;" glyph-name="hide" d="M955.733 849.067l-42.667 42.667c-12.8 12.8-34.133 8.533-46.933-4.267l-145.067-145.067c-64 29.867-136.533 42.667-209.067 42.667-221.867 0-413.867-132.267-507.733-320-4.267-12.8-4.267-25.6 0-34.133 42.667-89.6 106.667-162.133 187.733-217.6l-119.467-119.467c-12.8-12.8-17.067-34.133-4.267-46.933l42.667-42.667c12.8-12.8 34.133-8.533 46.933 4.267l789.333 793.6c17.067 17.067 21.333 38.4 8.533 46.933zM558.933 576c-17.067 4.267-29.867 8.533-46.933 8.533-76.8 0-136.533-59.733-136.533-136.533 0 0 0 0 0 0 0-17.067 4.267-29.867 8.533-46.933l-59.733-59.733c-17.067 34.133-29.867 68.267-29.867 106.667 0 119.467 93.867 217.6 213.333 217.6 0 0 0 0 0 0 38.4 0 76.8-8.533 106.667-29.867l-55.467-59.733zM1019.733 465.067c4.267-12.8 4.267-25.6-4.267-38.4-93.867-187.733-285.867-320-507.733-320-38.4 0-81.067 4.267-123.733 12.8l106.667 106.667h21.333c119.467 0 217.6 98.133 217.6 217.6v17.067l166.4 170.667c51.2-46.933 93.867-102.4 123.733-166.4v0z" />
<glyph unicode="&#xe930;" glyph-name="info" d="M512 960c-281.6 0-512-230.4-512-512s230.4-512 512-512 512 230.4 512 512c0 281.6-230.4 512-512 512zM947.2 448c0-238.933-196.267-435.2-435.2-435.2s-435.2 196.267-435.2 435.2c0 238.933 196.267 435.2 435.2 435.2 0 0 0 0 0 0 238.933 0 435.2-196.267 435.2-435.2zM512 320c21.333 0 42.667 17.067 42.667 38.4v366.933c0 21.333-17.067 38.4-42.667 38.4s-42.667-17.067-42.667-38.4v-362.667c0-21.333 21.333-42.667 42.667-42.667zM512 256c-29.867 0-51.2-21.333-51.2-51.2v0c0-25.6 21.333-51.2 51.2-51.2s51.2 21.333 51.2 46.933c0 29.867-21.333 51.2-51.2 55.467 4.267 0 0 0 0 0z" />
<glyph unicode="&#xe931;" glyph-name="insert-colum" d="M567.467 960v-1024h456.533v1024h-456.533zM908.8 51.2h-226.133v793.6h226.133v-793.6zM0 960h456.533v-1024h-456.533v1024z" />
<glyph unicode="&#xe932;" glyph-name="more-vertical" d="M512 332.8c-64 0-115.2 51.2-115.2 115.2s51.2 115.2 115.2 115.2 115.2-51.2 115.2-115.2-51.2-115.2-115.2-115.2zM512-64c-64 0-115.2 51.2-115.2 115.2s51.2 115.2 115.2 115.2 115.2-51.2 115.2-115.2c0-64-51.2-115.2-115.2-115.2zM512 733.867c-64 0-115.2 51.2-115.2 115.2s51.2 110.933 115.2 110.933 115.2-51.2 115.2-115.2-51.2-110.933-115.2-110.933z" />
<glyph unicode="&#xe933;" glyph-name="move-left" d="M157.867 418.133l384-247.467c12.8-8.533 25.6-8.533 34.133 0 12.8 4.267 17.067 17.067 17.067 29.867v494.933c0 12.8-8.533 25.6-17.067 29.867-12.8 4.267-25.6 4.267-34.133 0l-384-247.467c-17.067-12.8-21.333-34.133-8.533-51.2 0-4.267 4.267-4.267 8.533-8.533v0zM883.2 960h-115.2v-1024h115.2v1024z" />
<glyph unicode="&#xe934;" glyph-name="move-right" d="M866.133 418.133l-384-247.467c-12.8-8.533-25.6-8.533-34.133 0-12.8 4.267-17.067 17.067-17.067 29.867v494.933c0 12.8 8.533 25.6 17.067 29.867 12.8 4.267 25.6 4.267 34.133 0l384-247.467c17.067-12.8 21.333-34.133 8.533-51.2 0-4.267-4.267-4.267-8.533-8.533v0zM140.8 960h115.2v-1024h-115.2v1024z" />
<glyph unicode="&#xe935;" glyph-name="setting" d="M1024 362.667v170.667l-128 25.6c-8.533 25.6-17.067 55.467-34.133 76.8l72.533 110.933-119.467 119.467-110.933-72.533c-25.6 12.8-51.2 25.6-76.8 34.133l-29.867 132.267h-170.667l-25.6-128c-29.867-8.533-55.467-21.333-81.067-34.133l-110.933 72.533-119.467-119.467 72.533-110.933c-12.8-25.6-25.6-51.2-34.133-81.067l-128-25.6v-170.667l128-25.6c8.533-25.6 17.067-55.467 34.133-76.8l-72.533-110.933 119.467-119.467 110.933 72.533c25.6-12.8 51.2-25.6 76.8-34.133l25.6-128h170.667l25.6 128c25.6 8.533 55.467 17.067 76.8 34.133l110.933-72.533 119.467 119.467-72.533 110.933c12.8 25.6 25.6 51.2 34.133 76.8l136.533 25.6zM512 622.933c98.133 0 174.933-76.8 174.933-174.933s-76.8-174.933-174.933-174.933c0 0 0 0 0 0-98.133 0-174.933 81.067-174.933 174.933 0 98.133 76.8 174.933 174.933 174.933z" />
<glyph unicode="&#xe936;" glyph-name="arrow-down" d="M512-64c-17.067 0-29.867 8.533-42.667 25.6l-277.333 285.867c-25.6 25.6-25.6 68.267 0 93.867s64 25.6 89.6 4.267c0 0 0 0 4.267-4.267l166.4-170.667v721.067c-4.267 38.4 25.6 68.267 59.733 68.267s64-29.867 64-68.267v-721.067l166.4 170.667c25.6 25.6 64 25.6 89.6 4.267 0 0 0 0 4.267-4.267 25.6-25.6 25.6-68.267 0-93.867l-277.333-285.867c-17.067-17.067-34.133-25.6-46.933-25.6z" />
<glyph unicode="&#xe937;" glyph-name="arrow-up" d="M512 960c-17.067 0-29.867-8.533-42.667-25.6l-281.6-285.867c-25.6-25.6-25.6-68.267 0-93.867s64-25.6 89.6-4.267c0 0 0 0 4.267 4.267l166.4 170.667v-721.067c0-38.4 29.867-68.267 64-68.267s64 29.867 64 68.267v721.067l166.4-170.667c25.6-25.6 64-25.6 89.6-4.267 0 0 0 0 4.267 4.267 25.6 25.6 25.6 68.267 0 93.867l-277.333 285.867c-17.067 17.067-34.133 25.6-46.933 25.6z" />
<glyph unicode="&#xe938;" glyph-name="zoom-in" d="M1006.933 25.6l-196.267 196.267c64 81.067 98.133 179.2 98.133 281.6 0 251.733-204.8 456.533-456.533 456.533s-452.267-204.8-452.267-456.533c0-251.733 204.8-456.533 456.533-456.533 102.4 0 200.533 34.133 281.6 98.133l196.267-196.267c8.533-8.533 25.6-17.067 38.4-17.067s25.6 4.267 38.4 17.067c17.067 21.333 17.067 55.467-4.267 76.8zM456.533 157.867c-192 0-349.867 157.867-349.867 349.867s157.867 349.867 349.867 349.867c0 0 0 0 0 0 192 0 349.867-157.867 349.867-349.867-4.267-196.267-157.867-349.867-349.867-349.867 0 0 0 0 0 0v0zM622.933 558.933h-115.2v115.2c0 29.867-25.6 51.2-51.2 51.2-29.867 0-55.467-21.333-55.467-51.2v-115.2h-115.2c-29.867 0-51.2-25.6-51.2-51.2 0-29.867 25.6-51.2 51.2-51.2h115.2v-115.2c0-29.867 25.6-51.2 51.2-51.2 29.867 0 51.2 25.6 51.2 51.2v115.2h115.2c29.867 0 51.2 25.6 51.2 51.2 4.267 25.6-17.067 51.2-46.933 51.2 0 0 0 0 0 0v0z" />
<glyph unicode="&#xe939;" glyph-name="zoom-out" d="M1006.933 25.6l-196.267 196.267c64 81.067 98.133 179.2 98.133 281.6 0 251.733-204.8 456.533-456.533 456.533s-452.267-204.8-452.267-456.533c0-251.733 204.8-456.533 456.533-456.533 102.4 0 200.533 34.133 281.6 98.133l196.267-196.267c8.533-8.533 25.6-17.067 38.4-17.067s25.6 4.267 38.4 17.067c17.067 21.333 17.067 55.467-4.267 76.8zM106.667 503.467c0 192 157.867 349.867 349.867 349.867s349.867-157.867 349.867-349.867c0-192-153.6-349.867-349.867-349.867 0 0 0 0 0 0-192 4.267-349.867 157.867-349.867 349.867zM588.8 558.933h-268.8c-29.867 0-51.2-25.6-51.2-51.2 0-29.867 25.6-51.2 51.2-51.2h268.8c29.867 0 51.2 25.6 51.2 51.2s-21.333 51.2-51.2 51.2c0 0 0 0 0 0v0z" />
<glyph unicode="&#xe93a;" glyph-name="atom-file" d="M797.867 960h-448c-4.267 0-4.267 0-8.533 0v0c0 0-4.267 0-4.267 0h-4.267c0 0-4.267 0-4.267-4.267 0 0 0 0-4.267 0 0 0-4.267 0-4.267-4.267 0 0 0 0 0 0l-179.2-217.6c-4.267-4.267-8.533-12.8-8.533-21.333v-682.667c0-51.2 42.667-93.867 93.867-93.867h576c51.2 0 93.867 42.667 93.867 93.867v836.267c-4.267 51.2-46.933 93.867-98.133 93.867zM311.467 819.2v-72.533h-59.733c0 0 59.733 72.533 59.733 72.533zM814.933 29.867c0-8.533-8.533-17.067-17.067-17.067h-571.733c-8.533 0-17.067 8.533-17.067 17.067v644.267h140.8c21.333 0 38.4 17.067 38.4 38.4 0 0 0 0 0 0v170.667h409.6c8.533 0 17.067-8.533 17.067-17.067v-836.267zM247.467 119.467c38.4 0 68.267-29.867 68.267-68.267h-68.267v68.267zM247.467 256c110.933 0 200.533-89.6 204.8-200.533 0 0 0 0 0 0h-68.267c0 72.533-59.733 136.533-136.533 136.533 0 0 0 0 0 0v64zM247.467 388.267c187.733 0 337.067-149.333 337.067-337.067 0 0 0 0 0 0h-68.267c0 149.333-119.467 268.8-268.8 268.8 0 0 0 0 0 0s0 68.267 0 68.267z" />
<glyph unicode="&#xe93b;" glyph-name="copy" d="M738.133 960h-605.867c-21.333 0-38.4-4.267-55.467-21.333-12.8-12.8-21.333-34.133-21.333-51.2v-657.067h76.8v657.067h605.867v72.533zM285.867 814.933h605.867c55.467 0 76.8-21.333 76.8-72.533v-729.6c0-55.467-21.333-72.533-76.8-72.533h-605.867c-55.467 0-76.8 21.333-76.8 72.533v729.6c0 21.333 8.533 38.4 21.333 51.2s34.133 21.333 55.467 21.333v0zM285.867 8.533h605.867v733.867h-605.867v-733.867z" />
<glyph unicode="&#xe93c;" glyph-name="create-new" d="M718.227 911.895h-549.787c-18.56 1.033-36.656-5.568-49.806-18.254-11.73-11.202-19.027-26.969-19.027-44.435 0-1.272 0.042-2.536 0.115-3.782l-0.007 0.172v-596.493h68.725v596.493h549.893v66.299zM305.931 779.349h549.84c50.365 0 68.725-17.737 68.725-66.299v-662.75c0-48.615-18.349-66.299-68.725-66.299h-549.893c-50.365 0-68.725 17.685-68.725 66.299v662.697c-0.068 1.095-0.11 2.373-0.11 3.659 0 17.447 7.27 33.188 18.958 44.369l0.019 0.018c13.15 12.686 31.299 19.33 49.859 18.254zM305.773 42.981h549.84v662.803h-549.84v-662.803zM741.575 400.261c15.58 0 28.199-12.629 28.199-28.199s-12.629-28.199-28.199-28.199h-124.046v-125.438c0-15.58-12.629-28.199-28.199-28.199s-28.199 12.629-28.199 28.199v0 124.046h-124.046c-15.58 0-28.199 12.629-28.199 28.199s12.629 28.199 28.199 28.199h124.046v124.046c0 15.58 12.629 28.199 28.199 28.199s28.199-12.629 28.199-28.199v0-122.654h124.046z" />
<glyph unicode="&#xe93d;" glyph-name="move" d="M930.133 448c0 29.867 21.333 46.933 46.933 46.933 29.867 0 46.933-21.333 46.933-46.933v-465.067c0-29.867-21.333-46.933-46.933-46.933h-930.133c-25.6 0-46.933 21.333-46.933 46.933v930.133c0 25.6 21.333 46.933 46.933 46.933h465.067c29.867 0 46.933-21.333 46.933-46.933s-17.067-46.933-46.933-46.933h-418.133v-832h832c4.267-4.267 4.267 413.867 4.267 413.867zM729.6 878.933c-8.533 8.533-12.8 21.333-12.8 34.133 0 29.867 21.333 46.933 46.933 46.933 12.8 0 25.6-4.267 34.133-12.8l209.067-209.067c17.067-17.067 17.067-46.933 0-64 0 0 0 0 0 0l-209.067-209.067c-17.067-17.067-46.933-17.067-64 0 0 0 0 0 0 0-17.067 17.067-17.067 46.933 0 64 0 0 0 0 0 0l128 128h-98.133c-110.933 0-204.8-89.6-204.8-200.533 0 0 0-4.267 0-4.267 0-29.867-21.333-46.933-46.933-46.933s-46.933 21.333-46.933 46.933c0 157.867 123.733 290.133 281.6 294.4 0 0 42.667 4.267 115.2 4.267l-132.267 128z" />
<glyph unicode="&#xe93e;" glyph-name="pdf-file" d="M797.867 960h-448c-4.267 0-4.267 0-8.533 0v0c0 0-4.267 0-4.267 0h-4.267c0 0-4.267 0-4.267-4.267 0 0 0 0-4.267 0 0 0-4.267 0-4.267-4.267 0 0 0 0 0 0l-179.2-217.6c-4.267-4.267-8.533-12.8-8.533-21.333v-682.667c0-51.2 42.667-93.867 93.867-93.867h576c51.2 0 93.867 42.667 93.867 93.867v836.267c-4.267 51.2-46.933 93.867-98.133 93.867zM311.467 819.2v-72.533h-59.733c0 0 59.733 72.533 59.733 72.533zM814.933 29.867c0-8.533-8.533-17.067-17.067-17.067h-571.733c-8.533 0-17.067 8.533-17.067 17.067v644.267h140.8c21.333 0 38.4 17.067 38.4 38.4 0 0 0 0 0 0v170.667h409.6c8.533 0 17.067-8.533 17.067-17.067v-836.267zM362.667 448c29.867 0 55.467-21.333 55.467-51.2 0 0 0 0 0 0 0-17.067-4.267-29.867-17.067-38.4-8.533-8.533-25.6-17.067-38.4-17.067h-25.6v-51.2h-34.133v157.867h59.733zM362.667 371.2c4.267 0 8.533 0 8.533 0 4.267 0 4.267 4.267 8.533 4.267 4.267 4.267 8.533 12.8 8.533 17.067s0 12.8-8.533 17.067c-4.267 4.267-8.533 8.533-17.067 8.533h-25.6v-46.933h25.6zM520.533 448c21.333 0 38.4-8.533 55.467-21.333 12.8-17.067 21.333-34.133 21.333-55.467s-8.533-42.667-21.333-55.467c-12.8-17.067-34.133-25.6-55.467-21.333h-64v153.6c0 0 64 0 64 0zM520.533 320c12.8 0 25.6 4.267 34.133 12.8s12.8 21.333 12.8 34.133-4.267 29.867-12.8 38.4c-8.533 8.533-21.333 12.8-34.133 12.8h-29.867v-98.133c-4.267 0 29.867 0 29.867 0zM729.6 418.133h-64v-38.4h64v-29.867h-64v-59.733h-29.867v157.867h93.867v-29.867z" />
<glyph unicode="&#xe93f;" glyph-name="arrow-left" d="M0 448c0-17.067 8.533-29.867 25.6-42.667l285.867-281.6c25.6-25.6 68.267-25.6 93.867 0s25.6 64 4.267 89.6c0 0 0 0-4.267 4.267l-170.667 166.4h721.067c38.4 0 68.267 29.867 68.267 64s-29.867 64-68.267 64h-721.067l170.667 166.4c25.6 25.6 25.6 64 4.267 89.6 0 0 0 0-4.267 4.267-25.6 25.6-68.267 25.6-93.867 0l-285.867-277.333c-17.067-17.067-25.6-34.133-25.6-46.933z" />
<glyph unicode="&#xe940;" glyph-name="csv" horiz-adv-x="764" d="M671.499 960h-452.516c-2.751 0-5.426-0.306-8.009-0.871-0.688-0.153-1.314-0.428-1.987-0.611-2.156-0.546-3.988-1.174-5.753-1.93l0.251 0.096c-0.825-0.367-1.589-0.871-2.4-1.299-1.682-0.856-3.097-1.709-4.448-2.648l0.123 0.081c-0.841-0.611-1.589-1.284-2.384-1.956-1.251-1.037-2.378-2.096-3.436-3.221l-0.018-0.019c-0.321-0.352-0.718-0.611-1.024-0.963l-180.805-210.913c-5.652-6.555-9.094-15.154-9.094-24.557 0-0.001 0-0.002 0-0.004v0-683.253c0-50.68 41.571-91.931 92.68-91.931h578.82c51.108 0 92.68 41.25 92.68 91.946v840.108c0 50.696-41.571 91.946-92.68 91.946zM180.82 819.177v-70.564h-60.477l60.477 70.564zM687.868 27.946c0-8.941-7.336-16.231-16.353-16.231h-578.835c-9.017 0-16.353 7.29-16.353 16.231v644.967h142.642c0.046 0 0.099 0 0.153 0 20.934 0 37.915 16.922 38.010 37.833v173.539h414.353c9.017 0 16.353-7.29 16.353-16.231v-840.108zM236.284 288.745c-24.148 0-44.093 8.024-59.835 24.072-15.742 15.895-23.613 35.687-23.613 59.377 0 23.842 7.871 43.635 23.613 59.377 15.742 16.048 35.687 24.072 59.835 24.072 7.336 0 14.397-0.871 21.198-2.644 6.816-1.758 13.19-4.279 19.15-7.565s11.34-7.244 16.17-11.921c4.814-4.661 8.971-9.888 12.487-15.696l-27.281-15.819c-3.974 7.336-9.629 12.991-16.965 16.965s-15.589 5.961-24.759 5.961c-15.589 0-28.198-4.891-37.827-14.672-9.476-9.934-14.214-22.62-14.214-38.056 0-15.284 4.738-27.893 14.214-37.827 9.629-9.781 22.238-14.672 37.827-14.672 9.17 0 17.454 2.017 24.866 6.083 7.171 3.839 12.923 9.513 16.751 16.403l0.107 0.21 27.281-15.819c-3.515-5.808-7.672-11.035-12.487-15.712-4.697-4.547-10.008-8.504-15.786-11.725l-0.384-0.197c-5.961-3.286-12.334-5.808-19.15-7.565-6.274-1.67-13.477-2.629-20.904-2.629-0.104 0-0.207 0-0.311 0.001h0.016zM399.436 288.745c-16.048 0-29.451 3.515-40.226 10.546-10.542 6.872-18.529 16.895-22.697 28.719l-0.122 0.396 27.052 15.819c6.266-16.353 18.57-24.53 36.91-24.53 8.864 0 15.36 1.605 19.487 4.814s6.19 7.26 6.19 12.15c0 5.655-2.522 10.011-7.565 13.067-5.044 3.21-14.061 6.648-27.052 10.316-7.183 2.14-13.251 4.279-18.218 6.419-5.753 2.546-10.688 5.381-15.285 8.659l0.261-0.177c-10.087 7.489-15.131 18.493-15.131 33.013 0 14.672 5.12 26.211 15.36 34.617 10.24 8.712 22.696 13.067 37.368 13.067 12.991 0 24.408-3.133 34.281-9.399 9.858-6.266 17.53-15.131 23.032-26.593l-26.593-15.36c-6.419 13.755-16.659 20.633-30.72 20.633-6.572 0-11.723-1.483-15.467-4.478-3.433-2.604-5.627-6.687-5.627-11.281 0-0.101 0.001-0.202 0.003-0.303v0.015c0-5.044 2.063-9.17 6.19-12.38 4.585-3.21 12.685-6.572 24.301-10.087l11.004-3.668c1.223-0.306 2.705-0.795 4.478-1.498 1.758-0.688 3.699-1.483 5.838-2.4 4.585-1.681 7.947-3.286 10.087-4.814 2.445-1.528 5.196-3.592 8.253-6.19s5.349-5.273 6.878-8.024c3.749-6.421 5.962-14.135 5.962-22.366 0-0.116 0-0.232-0.001-0.348v0.018c0-14.825-5.426-26.593-16.277-35.305s-24.836-13.067-41.953-13.067zM533.244 291.955l-53.875 160.478h34.388l39.202-123.339 38.973 123.339h34.617l-54.104-160.478h-39.202z" />
<glyph unicode="&#xe941;" glyph-name="pdf-attachments" horiz-adv-x="764" d="M671.499 960h-452.516c-2.751 0-5.426-0.306-8.009-0.871-0.688-0.153-1.314-0.428-1.987-0.611-2.156-0.546-3.988-1.174-5.753-1.93l0.251 0.096c-0.825-0.367-1.589-0.871-2.4-1.299-1.682-0.856-3.097-1.709-4.448-2.648l0.123 0.081c-0.841-0.611-1.589-1.284-2.384-1.956-1.251-1.037-2.378-2.096-3.436-3.221l-0.018-0.019c-0.321-0.352-0.718-0.611-1.024-0.963l-180.805-210.913c-5.652-6.555-9.094-15.154-9.094-24.557 0-0.001 0-0.002 0-0.004v0-683.253c0-50.68 41.571-91.931 92.68-91.931h578.82c51.108 0 92.68 41.25 92.68 91.946v840.108c0 50.696-41.571 91.946-92.68 91.946zM180.82 819.177v-70.564h-60.477l60.477 70.564zM687.868 27.946c0-8.941-7.336-16.231-16.353-16.231h-578.835c-9.017 0-16.353 7.29-16.353 16.231v644.967h142.642c0.046 0 0.099 0 0.153 0 20.934 0 37.915 16.922 38.010 37.833v173.539h414.353c9.017 0 16.353-7.29 16.353-16.231v-840.108zM231.913 448c15.284 0 28.275-5.151 38.988-15.467 10.546-10.316 15.834-22.987 15.834-38.010 0-15.161-5.273-27.831-15.834-37.995-10.699-10.316-23.69-15.482-38.988-15.482h-28.213v-52.331h-31.652v159.285h59.866zM231.913 370.405c3.362 0 6.496 0.611 9.399 1.819 2.924 1.216 5.409 2.951 7.449 5.11l0.010 0.010c2.063 2.201 3.668 4.738 4.814 7.627 1.146 2.873 1.727 6.068 1.727 9.552 0 6.985-2.186 12.747-6.541 17.301-4.356 4.539-9.98 6.816-16.858 6.816h-28.213v-48.235h28.213zM389.181 448c22.008 0 40.349-7.657 55.036-22.987 14.84-15.161 22.253-34.052 22.253-56.656 0-22.62-7.413-41.495-22.253-56.656-14.672-15.329-33.013-22.987-55.051-22.987h-63.763v159.285h63.763zM389.181 318.747c13.908 0 25.218 4.555 33.93 13.648 8.727 9.262 13.083 21.244 13.083 35.962s-4.356 26.624-13.067 35.718c-8.712 9.262-20.037 13.893-33.96 13.893h-32.096v-99.221h32.096zM602.861 417.968h-64.222v-37.781h62.388v-30.032h-62.388v-61.44h-31.683v159.285h95.889v-30.032zM517.288 562.627c-34.052 0-58.781 26.93-58.781 64.038v98.992c0 46.462 32.86 81.507 76.418 81.507s76.418-35.045 76.418-81.507v-81.523h-23.506v81.523c0 33.731-22.268 58.23-52.912 58.23s-52.912-24.5-52.912-58.23v-98.992c0-20.297 10.912-40.746 35.275-40.746s35.275 20.449 35.275 40.746v87.346c0 7-1.712 23.292-17.637 23.292s-17.637-16.292-17.637-23.292v-81.523h-23.506v81.523c0 27.862 16.537 46.569 41.143 46.569s41.143-18.707 41.143-46.569v-87.346c0-37.109-24.714-64.038-58.781-64.038z" />
<glyph unicode="&#xe942;" glyph-name="pdf-descriptions" horiz-adv-x="764" d="M671.499 960h-452.516c-2.751 0-5.426-0.306-8.009-0.871-0.688-0.153-1.314-0.428-1.987-0.611-2.156-0.546-3.988-1.174-5.753-1.93l0.251 0.096c-0.825-0.367-1.589-0.871-2.4-1.299-1.682-0.856-3.097-1.709-4.448-2.648l0.123 0.081c-0.841-0.611-1.589-1.284-2.384-1.956-1.251-1.037-2.378-2.096-3.436-3.221l-0.018-0.019c-0.321-0.352-0.718-0.611-1.024-0.963l-180.805-210.913c-5.652-6.555-9.094-15.154-9.094-24.557 0-0.001 0-0.002 0-0.004v0-683.253c0-50.68 41.571-91.931 92.68-91.931h578.82c51.108 0 92.68 41.25 92.68 91.946v840.108c0 50.696-41.571 91.946-92.68 91.946zM180.82 819.177v-70.564h-60.477l60.477 70.564zM687.868 27.946c0-8.941-7.336-16.231-16.353-16.231h-578.835c-9.017 0-16.353 7.29-16.353 16.231v644.967h142.642c0.046 0 0.099 0 0.153 0 20.934 0 37.915 16.922 38.010 37.833v173.539h414.353c9.017 0 16.353-7.29 16.353-16.231v-840.108zM231.913 448c15.284 0 28.275-5.151 38.988-15.467 10.546-10.316 15.834-22.987 15.834-38.010 0-15.161-5.273-27.831-15.834-37.995-10.699-10.316-23.69-15.482-38.988-15.482h-28.213v-52.331h-31.652v159.285h59.866zM231.913 370.405c3.362 0 6.496 0.611 9.399 1.819 2.924 1.216 5.409 2.951 7.449 5.11l0.010 0.010c2.063 2.201 3.668 4.738 4.814 7.627 1.146 2.873 1.727 6.068 1.727 9.552 0 6.985-2.186 12.747-6.541 17.301-4.356 4.539-9.98 6.816-16.858 6.816h-28.213v-48.235h28.213zM389.181 448c22.008 0 40.349-7.657 55.036-22.987 14.84-15.161 22.253-34.052 22.253-56.656 0-22.62-7.413-41.495-22.253-56.656-14.672-15.329-33.013-22.987-55.051-22.987h-63.763v159.285h63.763zM389.181 318.747c13.908 0 25.218 4.555 33.93 13.648 8.727 9.262 13.083 21.244 13.083 35.962s-4.356 26.624-13.067 35.718c-8.712 9.262-20.037 13.893-33.96 13.893h-32.096v-99.221h32.096zM602.861 417.968h-64.222v-37.781h62.388v-30.032h-62.388v-61.44h-31.683v159.285h95.889v-30.032zM168.119 195.821h427.94v-61.134h-427.94v61.134z" />
<glyph unicode="&#xe943;" glyph-name="pdf-descriptions-attachments" horiz-adv-x="764" d="M671.499 960h-452.516c-2.751 0-5.426-0.306-8.009-0.871-0.688-0.153-1.314-0.428-1.987-0.611-2.156-0.546-3.988-1.174-5.753-1.93l0.251 0.096c-0.825-0.367-1.589-0.871-2.4-1.299-1.682-0.856-3.097-1.709-4.448-2.648l0.123 0.081c-0.841-0.611-1.589-1.284-2.384-1.956-1.251-1.037-2.378-2.096-3.436-3.221l-0.018-0.019c-0.321-0.352-0.718-0.611-1.024-0.963l-180.805-210.913c-5.652-6.555-9.094-15.154-9.094-24.557 0-0.001 0-0.002 0-0.004v0-683.253c0-50.68 41.571-91.931 92.68-91.931h578.82c51.108 0 92.68 41.25 92.68 91.946v840.108c0 50.696-41.571 91.946-92.68 91.946zM180.82 819.177v-70.564h-60.477l60.477 70.564zM687.868 27.946c0-8.941-7.336-16.231-16.353-16.231h-578.835c-9.017 0-16.353 7.29-16.353 16.231v644.967h142.642c0.046 0 0.099 0 0.153 0 20.934 0 37.915 16.922 38.010 37.833v173.539h414.353c9.017 0 16.353-7.29 16.353-16.231v-840.108zM231.913 448c15.284 0 28.275-5.151 38.988-15.467 10.546-10.316 15.834-22.987 15.834-38.010 0-15.161-5.273-27.831-15.834-37.995-10.699-10.316-23.69-15.482-38.988-15.482h-28.213v-52.331h-31.652v159.285h59.866zM231.913 370.405c3.362 0 6.496 0.611 9.399 1.819 2.924 1.216 5.409 2.951 7.449 5.11l0.010 0.010c2.063 2.201 3.668 4.738 4.814 7.627 1.146 2.873 1.727 6.068 1.727 9.552 0 6.985-2.186 12.747-6.541 17.301-4.356 4.539-9.98 6.816-16.858 6.816h-28.213v-48.235h28.213zM389.181 448c22.008 0 40.349-7.657 55.036-22.987 14.84-15.161 22.253-34.052 22.253-56.656 0-22.62-7.413-41.495-22.253-56.656-14.672-15.329-33.013-22.987-55.051-22.987h-63.763v159.285h63.763zM389.181 318.747c13.908 0 25.218 4.555 33.93 13.648 8.727 9.262 13.083 21.244 13.083 35.962s-4.356 26.624-13.067 35.718c-8.712 9.262-20.037 13.893-33.96 13.893h-32.096v-99.221h32.096zM602.861 417.968h-64.222v-37.781h62.388v-30.032h-62.388v-61.44h-31.683v159.285h95.889v-30.032zM168.119 211.104h427.94v-61.134h-427.94v61.134zM517.288 562.627c-34.052 0-58.781 26.93-58.781 64.038v98.992c0 46.462 32.86 81.507 76.418 81.507s76.418-35.045 76.418-81.507v-81.523h-23.506v81.523c0 33.731-22.268 58.23-52.912 58.23s-52.912-24.5-52.912-58.23v-98.992c0-20.297 10.912-40.746 35.275-40.746s35.275 20.449 35.275 40.746v87.346c0 7-1.712 23.292-17.637 23.292s-17.637-16.292-17.637-23.292v-81.523h-23.506v81.523c0 27.862 16.537 46.569 41.143 46.569s41.143-18.707 41.143-46.569v-87.346c0-37.109-24.714-64.038-58.781-64.038z" />
<glyph unicode="&#xe944;" glyph-name="xls" horiz-adv-x="764" d="M671.499 960h-452.516c-2.751 0-5.426-0.306-8.009-0.871-0.688-0.153-1.314-0.428-1.987-0.611-2.156-0.546-3.988-1.174-5.753-1.93l0.251 0.096c-0.825-0.367-1.589-0.871-2.4-1.299-1.682-0.856-3.097-1.709-4.448-2.648l0.123 0.081c-0.841-0.611-1.589-1.284-2.384-1.956-1.251-1.037-2.378-2.096-3.436-3.221l-0.018-0.019c-0.321-0.352-0.718-0.611-1.024-0.963l-180.805-210.913c-5.652-6.555-9.094-15.154-9.094-24.557 0-0.001 0-0.002 0-0.004v0-683.253c0-50.68 41.571-91.931 92.68-91.931h578.82c51.108 0 92.68 41.25 92.68 91.946v840.108c0 50.696-41.571 91.946-92.68 91.946zM180.82 819.177v-70.564h-60.477l60.477 70.564zM687.868 27.946c0-8.941-7.336-16.231-16.353-16.231h-578.835c-9.017 0-16.353 7.29-16.353 16.231v644.967h142.642c0.046 0 0.099 0 0.153 0 20.934 0 37.915 16.922 38.010 37.833v173.539h414.353c9.017 0 16.353-7.29 16.353-16.231v-840.108zM317.516 291.955h-35.993l-31.179 52.27-31.179-52.27h-35.764l49.060 82.302-46.539 78.176h35.764l28.657-48.143 28.657 48.143h35.764l-46.539-77.946 49.29-82.531zM386.675 322.216h61.211v-30.261h-92.848v160.478h31.637v-130.216zM537.447 288.745c-16.048 0-29.451 3.515-40.226 10.546-10.542 6.872-18.529 16.895-22.697 28.719l-0.122 0.396 27.052 15.819c6.266-16.353 18.57-24.53 36.91-24.53 8.864 0 15.36 1.605 19.487 4.814s6.19 7.26 6.19 12.15c0 5.655-2.522 10.011-7.565 13.067-5.044 3.21-14.061 6.648-27.052 10.316-7.183 2.14-13.251 4.279-18.233 6.419-5.747 2.547-10.677 5.382-15.269 8.659l0.261-0.177c-10.087 7.489-15.131 18.493-15.131 33.013 0 14.672 5.12 26.211 15.36 34.617 10.24 8.712 22.696 13.067 37.368 13.067 12.991 0 24.408-3.133 34.281-9.399 9.858-6.266 17.53-15.131 23.032-26.593l-26.593-15.36c-6.419 13.755-16.659 20.633-30.72 20.633-6.572 0-11.723-1.483-15.467-4.478-3.433-2.604-5.627-6.687-5.627-11.281 0-0.101 0.001-0.202 0.003-0.303v0.015c0-5.044 2.063-9.17 6.19-12.38 4.585-3.21 12.685-6.572 24.301-10.087l11.004-3.668c1.223-0.306 2.705-0.795 4.478-1.483 1.758-0.703 3.699-1.498 5.838-2.415 4.585-1.681 7.947-3.286 10.087-4.814 2.445-1.528 5.196-3.592 8.253-6.19s5.349-5.273 6.878-8.024c1.681-2.751 3.103-6.068 4.249-9.98 1.146-3.897 1.712-8.131 1.712-12.716 0-14.825-5.426-26.593-16.277-35.305s-24.836-13.067-41.953-13.067z" />
<glyph unicode="&#xe945;" glyph-name="xls-description" horiz-adv-x="764" d="M671.499 960h-452.516c-2.751 0-5.426-0.306-8.009-0.871-0.688-0.153-1.314-0.428-1.987-0.611-2.156-0.546-3.988-1.174-5.753-1.93l0.251 0.096c-0.825-0.367-1.589-0.871-2.4-1.299-1.682-0.856-3.097-1.709-4.448-2.648l0.123 0.081c-0.841-0.611-1.589-1.284-2.384-1.956-1.251-1.037-2.378-2.096-3.436-3.221l-0.018-0.019c-0.321-0.352-0.718-0.611-1.024-0.963l-180.805-210.913c-5.652-6.555-9.094-15.154-9.094-24.557 0-0.001 0-0.002 0-0.004v0-683.253c0-50.68 41.571-91.931 92.68-91.931h578.82c51.108 0 92.68 41.25 92.68 91.946v840.108c0 50.696-41.571 91.946-92.68 91.946zM180.82 819.177v-70.564h-60.477l60.477 70.564zM687.868 27.946c0-8.941-7.336-16.231-16.353-16.231h-578.835c-9.017 0-16.353 7.29-16.353 16.231v644.967h142.642c0.046 0 0.099 0 0.153 0 20.934 0 37.915 16.922 38.010 37.833v173.539h414.353c9.017 0 16.353-7.29 16.353-16.231v-840.108zM317.516 291.955h-35.993l-31.179 52.27-31.179-52.27h-35.764l49.060 82.302-46.539 78.176h35.764l28.657-48.143 28.657 48.143h35.764l-46.539-77.946 49.29-82.531zM386.675 322.216h61.211v-30.261h-92.848v160.478h31.637v-130.216zM537.447 288.745c-16.048 0-29.451 3.515-40.226 10.546-10.542 6.872-18.529 16.895-22.697 28.719l-0.122 0.396 27.052 15.819c6.266-16.353 18.57-24.53 36.91-24.53 8.864 0 15.36 1.605 19.487 4.814s6.19 7.26 6.19 12.15c0 5.655-2.522 10.011-7.565 13.067-5.044 3.21-14.061 6.648-27.052 10.316-7.183 2.14-13.251 4.279-18.233 6.419-5.747 2.547-10.677 5.382-15.269 8.659l0.261-0.177c-10.087 7.489-15.131 18.493-15.131 33.013 0 14.672 5.12 26.211 15.36 34.617 10.24 8.712 22.696 13.067 37.368 13.067 12.991 0 24.408-3.133 34.281-9.399 9.858-6.266 17.53-15.131 23.032-26.593l-26.593-15.36c-6.419 13.755-16.659 20.633-30.72 20.633-6.572 0-11.723-1.483-15.467-4.478-3.433-2.604-5.627-6.687-5.627-11.281 0-0.101 0.001-0.202 0.003-0.303v0.015c0-5.044 2.063-9.17 6.19-12.38 4.585-3.21 12.685-6.572 24.301-10.087l11.004-3.668c1.223-0.306 2.705-0.795 4.478-1.483 1.758-0.703 3.699-1.498 5.838-2.415 4.585-1.681 7.947-3.286 10.087-4.814 2.445-1.528 5.196-3.592 8.253-6.19s5.349-5.273 6.878-8.024c3.749-6.421 5.962-14.135 5.962-22.366 0-0.116 0-0.232-0.001-0.348v0.018c0-14.825-5.426-26.593-16.277-35.305s-24.836-13.067-41.953-13.067zM168.119 211.104h427.94v-61.134h-427.94v61.134z" />
<glyph unicode="&#xe946;" glyph-name="xls-relations" horiz-adv-x="764" d="M671.499 960h-452.516c-2.751 0-5.426-0.306-8.009-0.871-0.688-0.153-1.314-0.428-1.987-0.611-2.156-0.546-3.988-1.174-5.753-1.93l0.251 0.096c-0.825-0.367-1.589-0.871-2.4-1.299-1.682-0.856-3.097-1.709-4.448-2.648l0.123 0.081c-0.841-0.611-1.589-1.284-2.384-1.956-1.251-1.037-2.378-2.096-3.436-3.221l-0.018-0.019c-0.321-0.352-0.718-0.611-1.024-0.963l-180.805-210.913c-5.652-6.555-9.094-15.154-9.094-24.557 0-0.001 0-0.002 0-0.004v0-683.253c0-50.68 41.571-91.931 92.68-91.931h578.82c51.108 0 92.68 41.25 92.68 91.946v840.108c0 50.696-41.571 91.946-92.68 91.946zM180.82 819.177v-70.564h-60.477l60.477 70.564zM687.868 27.946c0-8.941-7.336-16.231-16.353-16.231h-578.835c-9.017 0-16.353 7.29-16.353 16.231v644.967h142.642c0.046 0 0.099 0 0.153 0 20.934 0 37.915 16.922 38.010 37.833v173.539h414.353c9.017 0 16.353-7.29 16.353-16.231v-840.108zM317.516 291.955h-35.993l-31.179 52.27-31.179-52.27h-35.764l49.060 82.302-46.539 78.176h35.764l28.657-48.143 28.657 48.143h35.764l-46.539-77.946 49.29-82.531zM386.675 322.216h61.211v-30.261h-92.848v160.478h31.637v-130.216zM537.447 288.745c-16.048 0-29.451 3.515-40.226 10.546-10.542 6.872-18.529 16.895-22.697 28.719l-0.122 0.396 27.052 15.819c6.266-16.353 18.57-24.53 36.91-24.53 8.864 0 15.36 1.605 19.487 4.814s6.19 7.26 6.19 12.15c0 5.655-2.522 10.011-7.565 13.067-5.044 3.21-14.061 6.648-27.052 10.316-7.183 2.14-13.251 4.279-18.233 6.419-5.747 2.547-10.677 5.382-15.269 8.659l0.261-0.177c-10.087 7.489-15.131 18.493-15.131 33.013 0 14.672 5.12 26.211 15.36 34.617 10.24 8.712 22.696 13.067 37.368 13.067 12.991 0 24.408-3.133 34.281-9.399 9.858-6.266 17.53-15.131 23.032-26.593l-26.593-15.36c-6.419 13.755-16.659 20.633-30.72 20.633-6.572 0-11.723-1.483-15.467-4.478-3.433-2.604-5.627-6.687-5.627-11.281 0-0.101 0.001-0.202 0.003-0.303v0.015c0-5.044 2.063-9.17 6.19-12.38 4.585-3.21 12.685-6.572 24.301-10.087l11.004-3.668c1.223-0.306 2.705-0.795 4.478-1.483 1.758-0.703 3.699-1.498 5.838-2.415 4.585-1.681 7.947-3.286 10.087-4.814 2.445-1.528 5.196-3.592 8.253-6.19s5.349-5.273 6.878-8.024c3.749-6.421 5.962-14.135 5.962-22.366 0-0.116 0-0.232-0.001-0.348v0.018c0-14.825-5.426-26.593-16.277-35.305s-24.836-13.067-41.953-13.067zM456.628 708.86l-17.225-17.362-57.313 57.833 57.313 57.833 17.225-17.377-27.923-28.168h141.067v-24.576h-141.067l27.923-28.183zM554.030 708.86l57.313-57.833-57.313-57.833-17.225 17.377 27.923 28.168h-141.067v24.576h141.067l-27.923 28.183 17.225 17.362z" />
<glyph unicode="&#xe947;" glyph-name="export" d="M712.463 302.204v-291.537h-583.129v874.667h583.129v-291.537h-72.925v218.667h-437.333v-728.925h437.333v218.667h72.925zM823.6 628.4l180.4-180.4-180.4-180.4-52.261 52.316 91.676 91.621h-515.015v72.925h514.96l-91.621 91.621 52.261 52.316z" />
<glyph unicode="&#xe948;" glyph-name="save" d="M86.803-15.999h850.337c21.418 0.030 38.772 17.383 38.802 38.799v772.852l-116.29 116.347h-130.5v-303.919h-434.304v303.919h-207.988c0 0 0 0 0 0-21.439 0-38.829-17.367-38.86-38.799v-850.34c0-21.402 17.4-38.802 38.802-38.802zM274.954 401.601h474.324c19.546 0 35.496-15.949 35.496-35.496v-272.832c-0.030-19.588-15.907-35.466-35.493-35.496h-474.385c-19.588 0.030-35.466 15.907-35.496 35.493v272.835c0 19.546 15.949 35.496 35.496 35.496zM570 897.616c0 4.060 1.74 7.597 4.465 10.15 2.766 2.623 6.517 4.234 10.642 4.234 0.029 0 0.063 0 0.093 0h85.602c4.291 0 8.062-1.74 10.729-4.234 2.899-2.725 4.465-6.264 4.465-10.15v-203.232c-0.022-4.009-1.731-7.615-4.456-10.141l-0.010-0.009c-2.766-2.623-6.517-4.234-10.642-4.234-0.029 0-0.063 0-0.093 0h-85.602c-0.015 0-0.029 0-0.042 0-4.141 0-7.902 1.611-10.696 4.242l0.009-0.007c-2.742 2.529-4.452 6.138-4.465 10.147v203.235z" />
<glyph unicode="&#xe949;" glyph-name="dropdown-hide" d="M0 192l512 512 512-512z" />
<glyph unicode="&#xe94a;" glyph-name="attachment" d="M950.044 402.489c113.778 136.533 96.711 341.333-39.822 455.111s-341.333 96.711-455.111-39.822l-398.222-472.178c-85.333-102.4-68.267-250.311 28.444-329.956 0 0 0 0 0 0 102.4-85.333 250.311-68.267 329.956 28.444 0 0 0 0 0 0l324.267 381.156c51.2 62.578 45.511 153.6-17.067 204.8-68.267 56.889-159.289 45.511-210.489-11.378l-284.444-341.333 68.267-56.889 284.444 335.644c22.756 22.756 56.889 28.444 85.333 5.689 22.756-22.756 28.444-56.889 5.689-85.333l-324.267-381.156c-51.2-62.578-147.911-68.267-204.8-17.067-62.578 51.2-68.267 142.222-17.067 204.8l398.222 472.178c85.333 102.4 233.244 113.778 329.956 28.444 0 0 0 0 0 0 102.4-85.333 113.778-233.244 28.444-329.956 0 0 0 0 0 0l-358.4-426.667 68.267-56.889c0 5.689 358.4 432.356 358.4 432.356z" />
<glyph unicode="&#x1f5cc;" glyph-name="data" d="M512 439.467c-29.867-4.267-55.467 4.267-81.067 17.067-128 64-256 128-384 192-8.533 4.267-21.333 8.533-25.6 17.067-21.333 17.067-21.333 42.667 0 59.733 8.533 4.267 21.333 12.8 29.867 17.067 123.733 64 251.733 123.733 375.467 187.733 59.733 29.867 115.2 29.867 174.933 0 123.733-64 247.467-123.733 375.467-187.733 8.533-4.267 17.067-8.533 21.333-12.8 34.133-21.333 34.133-51.2 0-72.533-8.533-4.267-12.8-8.533-21.333-12.8-123.733-64-251.733-123.733-375.467-187.733-29.867-12.8-59.733-21.333-89.6-17.067zM503.467 187.733c-29.867-4.267-55.467 4.267-85.333 17.067-132.267 64-260.267 128-388.267 196.267-21.333 8.533-34.133 21.333-29.867 51.2 4.267 17.067 17.067 29.867 34.133 34.133s29.867-4.267 42.667-12.8c119.467-59.733 238.933-119.467 354.133-179.2 51.2-25.6 98.133-25.6 149.333 0 115.2 59.733 234.667 119.467 354.133 179.2 8.533 4.267 21.333 12.8 34.133 12.8 21.333 4.267 34.133-4.267 46.933-21.333 8.533-17.067 4.267-34.133-8.533-46.933-8.533-8.533-17.067-12.8-25.6-17.067-119.467-59.733-238.933-119.467-358.4-179.2-38.4-25.6-76.8-34.133-119.467-34.133zM512-55.467c-34.133-4.267-68.267 8.533-98.133 21.333-123.733 64-247.467 123.733-371.2 183.467-8.533 4.267-21.333 12.8-29.867 17.067-12.8 12.8-17.067 29.867-8.533 46.933 12.8 17.067 25.6 25.6 46.933 21.333 12.8 0 21.333-4.267 34.133-8.533 119.467-59.733 238.933-119.467 354.133-179.2 51.2-25.6 93.867-25.6 145.067 0 119.467 64 243.2 123.733 362.667 183.467 17.067 8.533 34.133 17.067 51.2 4.267 25.6-12.8 29.867-51.2 4.267-68.267-8.533-8.533-17.067-12.8-29.867-17.067-119.467-59.733-243.2-119.467-366.933-183.467-21.333-12.8-55.467-25.6-93.867-21.333z" />
</font>
</defs>
</svg>
